<mxfile host="Electron" modified="2024-07-29T02:39:41.509Z" agent="Mozilla/5.0 (Windows NT 10.0; Win64; x64) AppleWebKit/537.36 (KHTML, like Gecko) draw.io/24.5.3 Chrome/124.0.6367.207 Electron/30.0.6 Safari/537.36" etag="rt2o4SiSZebacycKuiq7" version="24.5.3" type="device">
  <diagram name="Page-1" id="5a6IOKsfaFqVyutskRm9">
    <mxGraphModel dx="1195" dy="712" grid="1" gridSize="10" guides="1" tooltips="1" connect="1" arrows="1" fold="1" page="1" pageScale="1" pageWidth="1169" pageHeight="827" math="0" shadow="0">
      <root>
        <mxCell id="0" />
        <mxCell id="1" parent="0" />
        <mxCell id="tud6ot7rInuQ3R6nDlzQ-9" value="" style="shape=umlLifeline;perimeter=lifelinePerimeter;whiteSpace=wrap;html=1;container=1;dropTarget=0;collapsible=0;recursiveResize=0;outlineConnect=0;portConstraint=eastwest;newEdgeStyle={&quot;curved&quot;:0,&quot;rounded&quot;:0};participant=umlActor;" vertex="1" parent="1">
          <mxGeometry x="110" y="40" width="20" height="1160" as="geometry" />
        </mxCell>
        <mxCell id="tud6ot7rInuQ3R6nDlzQ-16" value="" style="html=1;points=[[0,0,0,0,5],[0,1,0,0,-5],[1,0,0,0,5],[1,1,0,0,-5]];perimeter=orthogonalPerimeter;outlineConnect=0;targetShapes=umlLifeline;portConstraint=eastwest;newEdgeStyle={&quot;curved&quot;:0,&quot;rounded&quot;:0};" vertex="1" parent="tud6ot7rInuQ3R6nDlzQ-9">
          <mxGeometry x="5" y="60" width="10" height="1090" as="geometry" />
        </mxCell>
        <mxCell id="tud6ot7rInuQ3R6nDlzQ-10" value=":Frame" style="shape=umlLifeline;perimeter=lifelinePerimeter;whiteSpace=wrap;html=1;container=1;dropTarget=0;collapsible=0;recursiveResize=0;outlineConnect=0;portConstraint=eastwest;newEdgeStyle={&quot;curved&quot;:0,&quot;rounded&quot;:0};" vertex="1" parent="1">
          <mxGeometry x="560" y="40" width="120" height="1160" as="geometry" />
        </mxCell>
        <mxCell id="tud6ot7rInuQ3R6nDlzQ-11" value="" style="html=1;points=[[0,0,0,0,5],[0,1,0,0,-5],[1,0,0,0,5],[1,1,0,0,-5]];perimeter=orthogonalPerimeter;outlineConnect=0;targetShapes=umlLifeline;portConstraint=eastwest;newEdgeStyle={&quot;curved&quot;:0,&quot;rounded&quot;:0};" vertex="1" parent="tud6ot7rInuQ3R6nDlzQ-10">
          <mxGeometry x="55" y="60" width="10" height="50" as="geometry" />
        </mxCell>
        <mxCell id="tud6ot7rInuQ3R6nDlzQ-12" value="initialize" style="html=1;verticalAlign=bottom;startArrow=oval;endArrow=block;startSize=8;curved=0;rounded=0;entryX=0;entryY=0;entryDx=0;entryDy=5;" edge="1" target="tud6ot7rInuQ3R6nDlzQ-11" parent="tud6ot7rInuQ3R6nDlzQ-10">
          <mxGeometry relative="1" as="geometry">
            <mxPoint x="-15" y="65" as="sourcePoint" />
          </mxGeometry>
        </mxCell>
        <mxCell id="tud6ot7rInuQ3R6nDlzQ-18" value="" style="html=1;points=[[0,0,0,0,5],[0,1,0,0,-5],[1,0,0,0,5],[1,1,0,0,-5]];perimeter=orthogonalPerimeter;outlineConnect=0;targetShapes=umlLifeline;portConstraint=eastwest;newEdgeStyle={&quot;curved&quot;:0,&quot;rounded&quot;:0};" vertex="1" parent="tud6ot7rInuQ3R6nDlzQ-10">
          <mxGeometry x="55" y="140" width="10" height="80" as="geometry" />
        </mxCell>
        <mxCell id="tud6ot7rInuQ3R6nDlzQ-27" value="" style="html=1;points=[[0,0,0,0,5],[0,1,0,0,-5],[1,0,0,0,5],[1,1,0,0,-5]];perimeter=orthogonalPerimeter;outlineConnect=0;targetShapes=umlLifeline;portConstraint=eastwest;newEdgeStyle={&quot;curved&quot;:0,&quot;rounded&quot;:0};" vertex="1" parent="tud6ot7rInuQ3R6nDlzQ-10">
          <mxGeometry x="55" y="250" width="10" height="180" as="geometry" />
        </mxCell>
        <mxCell id="tud6ot7rInuQ3R6nDlzQ-13" value="playButton&lt;br&gt;:QPushButton" style="shape=umlLifeline;perimeter=lifelinePerimeter;whiteSpace=wrap;html=1;container=1;dropTarget=0;collapsible=0;recursiveResize=0;outlineConnect=0;portConstraint=eastwest;newEdgeStyle={&quot;curved&quot;:0,&quot;rounded&quot;:0};snapToPoint=1;" vertex="1" parent="1">
          <mxGeometry x="160" y="100" width="120" height="100" as="geometry" />
        </mxCell>
        <mxCell id="tud6ot7rInuQ3R6nDlzQ-15" value="" style="html=1;points=[[0,0,0,0,5],[0,1,0,0,-5],[1,0,0,0,5],[1,1,0,0,-5]];perimeter=orthogonalPerimeter;outlineConnect=0;targetShapes=umlLifeline;portConstraint=eastwest;newEdgeStyle={&quot;curved&quot;:0,&quot;rounded&quot;:0};" vertex="1" parent="tud6ot7rInuQ3R6nDlzQ-13">
          <mxGeometry x="55" y="60" width="10" height="30" as="geometry" />
        </mxCell>
        <mxCell id="tud6ot7rInuQ3R6nDlzQ-14" value="«create»" style="html=1;verticalAlign=bottom;endArrow=block;rounded=0;edgeStyle=elbowEdgeStyle;elbow=vertical;entryX=1;entryY=0.2;entryDx=0;entryDy=0;entryPerimeter=0;" edge="1" parent="1" source="tud6ot7rInuQ3R6nDlzQ-11" target="tud6ot7rInuQ3R6nDlzQ-13">
          <mxGeometry x="-0.0097" y="1" width="80" relative="1" as="geometry">
            <mxPoint x="734.3999999999997" y="119.99620689655174" as="sourcePoint" />
            <mxPoint x="310" y="110" as="targetPoint" />
            <mxPoint as="offset" />
          </mxGeometry>
        </mxCell>
        <mxCell id="tud6ot7rInuQ3R6nDlzQ-17" value="clicked()" style="html=1;verticalAlign=bottom;endArrow=block;curved=0;rounded=0;entryX=0;entryY=0;entryDx=0;entryDy=5;entryPerimeter=0;" edge="1" parent="1" source="tud6ot7rInuQ3R6nDlzQ-16" target="tud6ot7rInuQ3R6nDlzQ-15">
          <mxGeometry width="80" relative="1" as="geometry">
            <mxPoint x="130" y="150" as="sourcePoint" />
            <mxPoint x="210" y="150" as="targetPoint" />
          </mxGeometry>
        </mxCell>
        <mxCell id="tud6ot7rInuQ3R6nDlzQ-19" value="showProfileSelectionScreen()" style="html=1;verticalAlign=bottom;endArrow=block;curved=0;rounded=0;entryX=0;entryY=0;entryDx=0;entryDy=5;exitX=1;exitY=1;exitDx=0;exitDy=-5;exitPerimeter=0;" edge="1" target="tud6ot7rInuQ3R6nDlzQ-18" parent="1" source="tud6ot7rInuQ3R6nDlzQ-15">
          <mxGeometry relative="1" as="geometry">
            <mxPoint x="665" y="185" as="sourcePoint" />
          </mxGeometry>
        </mxCell>
        <mxCell id="tud6ot7rInuQ3R6nDlzQ-23" value="createProfileButton&lt;br&gt;:QPushButton" style="shape=umlLifeline;perimeter=lifelinePerimeter;whiteSpace=wrap;html=1;container=1;dropTarget=0;collapsible=0;recursiveResize=0;outlineConnect=0;portConstraint=eastwest;newEdgeStyle={&quot;curved&quot;:0,&quot;rounded&quot;:0};snapToPoint=1;" vertex="1" parent="1">
          <mxGeometry x="160" y="210" width="120" height="100" as="geometry" />
        </mxCell>
        <mxCell id="tud6ot7rInuQ3R6nDlzQ-24" value="" style="html=1;points=[[0,0,0,0,5],[0,1,0,0,-5],[1,0,0,0,5],[1,1,0,0,-5]];perimeter=orthogonalPerimeter;outlineConnect=0;targetShapes=umlLifeline;portConstraint=eastwest;newEdgeStyle={&quot;curved&quot;:0,&quot;rounded&quot;:0};" vertex="1" parent="tud6ot7rInuQ3R6nDlzQ-23">
          <mxGeometry x="55" y="60" width="10" height="30" as="geometry" />
        </mxCell>
        <mxCell id="tud6ot7rInuQ3R6nDlzQ-25" value="«create»" style="html=1;verticalAlign=bottom;endArrow=block;rounded=0;edgeStyle=elbowEdgeStyle;elbow=vertical;entryX=1;entryY=0.2;entryDx=0;entryDy=0;entryPerimeter=0;" edge="1" parent="1" source="tud6ot7rInuQ3R6nDlzQ-18" target="tud6ot7rInuQ3R6nDlzQ-23">
          <mxGeometry x="-0.0097" y="1" width="80" relative="1" as="geometry">
            <mxPoint x="744.3999999999997" y="129.99620689655174" as="sourcePoint" />
            <mxPoint x="380" y="220" as="targetPoint" />
            <mxPoint as="offset" />
          </mxGeometry>
        </mxCell>
        <mxCell id="tud6ot7rInuQ3R6nDlzQ-26" value="clicked()" style="html=1;verticalAlign=bottom;endArrow=block;curved=0;rounded=0;entryX=0;entryY=0;entryDx=0;entryDy=5;entryPerimeter=0;" edge="1" parent="1" source="tud6ot7rInuQ3R6nDlzQ-16" target="tud6ot7rInuQ3R6nDlzQ-24">
          <mxGeometry width="80" relative="1" as="geometry">
            <mxPoint x="135" y="175" as="sourcePoint" />
            <mxPoint x="225" y="175" as="targetPoint" />
          </mxGeometry>
        </mxCell>
        <mxCell id="tud6ot7rInuQ3R6nDlzQ-28" value="showProfileCreationOverlay()" style="html=1;verticalAlign=bottom;endArrow=block;curved=0;rounded=0;entryX=0;entryY=0;entryDx=0;entryDy=5;exitX=1;exitY=1;exitDx=0;exitDy=-5;exitPerimeter=0;entryPerimeter=0;" edge="1" parent="1" source="tud6ot7rInuQ3R6nDlzQ-24" target="tud6ot7rInuQ3R6nDlzQ-27">
          <mxGeometry relative="1" as="geometry">
            <mxPoint x="235" y="195" as="sourcePoint" />
            <mxPoint x="745" y="195" as="targetPoint" />
          </mxGeometry>
        </mxCell>
        <mxCell id="tud6ot7rInuQ3R6nDlzQ-29" value="imageLabel&lt;br&gt;:ClickableLabel" style="shape=umlLifeline;perimeter=lifelinePerimeter;whiteSpace=wrap;html=1;container=1;dropTarget=0;collapsible=0;recursiveResize=0;outlineConnect=0;portConstraint=eastwest;newEdgeStyle={&quot;curved&quot;:0,&quot;rounded&quot;:0};snapToPoint=1;" vertex="1" parent="1">
          <mxGeometry x="160" y="320" width="120" height="100" as="geometry" />
        </mxCell>
        <mxCell id="tud6ot7rInuQ3R6nDlzQ-30" value="" style="html=1;points=[[0,0,0,0,5],[0,1,0,0,-5],[1,0,0,0,5],[1,1,0,0,-5]];perimeter=orthogonalPerimeter;outlineConnect=0;targetShapes=umlLifeline;portConstraint=eastwest;newEdgeStyle={&quot;curved&quot;:0,&quot;rounded&quot;:0};" vertex="1" parent="tud6ot7rInuQ3R6nDlzQ-29">
          <mxGeometry x="55" y="60" width="10" height="30" as="geometry" />
        </mxCell>
        <mxCell id="tud6ot7rInuQ3R6nDlzQ-32" value="clicked()" style="html=1;verticalAlign=bottom;endArrow=block;curved=0;rounded=0;entryX=0;entryY=0;entryDx=0;entryDy=5;entryPerimeter=0;" edge="1" parent="1" source="tud6ot7rInuQ3R6nDlzQ-16" target="tud6ot7rInuQ3R6nDlzQ-30">
          <mxGeometry width="80" relative="1" as="geometry">
            <mxPoint x="135" y="275" as="sourcePoint" />
            <mxPoint x="305" y="275" as="targetPoint" />
          </mxGeometry>
        </mxCell>
        <mxCell id="tud6ot7rInuQ3R6nDlzQ-33" value="updateHeroImage(QString(&quot;:/image/%1.png&quot;).arg(imageNumber))" style="html=1;verticalAlign=bottom;endArrow=block;curved=0;rounded=0;exitX=1;exitY=1;exitDx=0;exitDy=-5;exitPerimeter=0;" edge="1" parent="1" source="tud6ot7rInuQ3R6nDlzQ-30" target="tud6ot7rInuQ3R6nDlzQ-27">
          <mxGeometry relative="1" as="geometry">
            <mxPoint x="315" y="295" as="sourcePoint" />
            <mxPoint x="745" y="295" as="targetPoint" />
          </mxGeometry>
        </mxCell>
        <mxCell id="tud6ot7rInuQ3R6nDlzQ-34" value="confirmButton&lt;br&gt;:QPushButton" style="shape=umlLifeline;perimeter=lifelinePerimeter;whiteSpace=wrap;html=1;container=1;dropTarget=0;collapsible=0;recursiveResize=0;outlineConnect=0;portConstraint=eastwest;newEdgeStyle={&quot;curved&quot;:0,&quot;rounded&quot;:0};snapToPoint=1;" vertex="1" parent="1">
          <mxGeometry x="160" y="430" width="120" height="100" as="geometry" />
        </mxCell>
        <mxCell id="tud6ot7rInuQ3R6nDlzQ-35" value="" style="html=1;points=[[0,0,0,0,5],[0,1,0,0,-5],[1,0,0,0,5],[1,1,0,0,-5]];perimeter=orthogonalPerimeter;outlineConnect=0;targetShapes=umlLifeline;portConstraint=eastwest;newEdgeStyle={&quot;curved&quot;:0,&quot;rounded&quot;:0};" vertex="1" parent="tud6ot7rInuQ3R6nDlzQ-34">
          <mxGeometry x="55" y="60" width="10" height="30" as="geometry" />
        </mxCell>
        <mxCell id="tud6ot7rInuQ3R6nDlzQ-36" value="clicked()" style="html=1;verticalAlign=bottom;endArrow=block;curved=0;rounded=0;entryX=0;entryY=0;entryDx=0;entryDy=5;entryPerimeter=0;" edge="1" parent="1" source="tud6ot7rInuQ3R6nDlzQ-16" target="tud6ot7rInuQ3R6nDlzQ-35">
          <mxGeometry width="80" relative="1" as="geometry">
            <mxPoint x="135" y="395" as="sourcePoint" />
            <mxPoint x="225" y="395" as="targetPoint" />
          </mxGeometry>
        </mxCell>
        <mxCell id="tud6ot7rInuQ3R6nDlzQ-37" value="«create»" style="html=1;verticalAlign=bottom;endArrow=block;rounded=0;edgeStyle=elbowEdgeStyle;elbow=vertical;entryX=1;entryY=0.2;entryDx=0;entryDy=0;entryPerimeter=0;" edge="1" parent="1" source="tud6ot7rInuQ3R6nDlzQ-27" target="tud6ot7rInuQ3R6nDlzQ-29">
          <mxGeometry x="-0.0097" y="1" width="80" relative="1" as="geometry">
            <mxPoint x="624.9999999999998" y="339.9655172413793" as="sourcePoint" />
            <mxPoint x="300" y="340" as="targetPoint" />
            <mxPoint as="offset" />
          </mxGeometry>
        </mxCell>
        <mxCell id="tud6ot7rInuQ3R6nDlzQ-38" value="«create»" style="html=1;verticalAlign=bottom;endArrow=block;rounded=0;edgeStyle=elbowEdgeStyle;elbow=vertical;entryX=1;entryY=0.2;entryDx=0;entryDy=0;entryPerimeter=0;" edge="1" parent="1" source="tud6ot7rInuQ3R6nDlzQ-27" target="tud6ot7rInuQ3R6nDlzQ-34">
          <mxGeometry x="-0.0097" y="1" width="80" relative="1" as="geometry">
            <mxPoint x="645" y="350" as="sourcePoint" />
            <mxPoint x="290" y="450" as="targetPoint" />
            <mxPoint as="offset" />
          </mxGeometry>
        </mxCell>
        <mxCell id="tud6ot7rInuQ3R6nDlzQ-39" value=":ProfileController" style="shape=umlLifeline;perimeter=lifelinePerimeter;whiteSpace=wrap;html=1;container=1;dropTarget=0;collapsible=0;recursiveResize=0;outlineConnect=0;portConstraint=eastwest;newEdgeStyle={&quot;curved&quot;:0,&quot;rounded&quot;:0};" vertex="1" parent="1">
          <mxGeometry x="720" y="40" width="120" height="1160" as="geometry" />
        </mxCell>
        <mxCell id="tud6ot7rInuQ3R6nDlzQ-40" value="" style="html=1;points=[[0,0,0,0,5],[0,1,0,0,-5],[1,0,0,0,5],[1,1,0,0,-5]];perimeter=orthogonalPerimeter;outlineConnect=0;targetShapes=umlLifeline;portConstraint=eastwest;newEdgeStyle={&quot;curved&quot;:0,&quot;rounded&quot;:0};" vertex="1" parent="tud6ot7rInuQ3R6nDlzQ-39">
          <mxGeometry x="55" y="470" width="10" height="80" as="geometry" />
        </mxCell>
        <mxCell id="tud6ot7rInuQ3R6nDlzQ-41" value="registerUser(nameInput-&amp;gt;text(), selectedImageNumber)" style="html=1;verticalAlign=bottom;endArrow=block;curved=0;rounded=0;entryX=0;entryY=0;entryDx=0;entryDy=5;exitX=1;exitY=1;exitDx=0;exitDy=-5;exitPerimeter=0;" edge="1" target="tud6ot7rInuQ3R6nDlzQ-40" parent="1" source="tud6ot7rInuQ3R6nDlzQ-35">
          <mxGeometry relative="1" as="geometry">
            <mxPoint x="705" y="515" as="sourcePoint" />
          </mxGeometry>
        </mxCell>
      </root>
    </mxGraphModel>
  </diagram>
</mxfile>
